HIERARCHY
ROOT Hips
{
	OFFSET 0.000000 0.000000 0.000000 
	CHANNELS 6 Xposition Yposition Zposition Zrotation Yrotation Xrotation
	JOINT LeftUpLeg
	{
		OFFSET 1.363060 -1.794630 0.839290 
		CHANNELS 3 Zrotation Yrotation Xrotation
		JOINT LeftLeg
		{
			OFFSET 2.448110 -6.726130 0.000000 
			CHANNELS 3 Zrotation Yrotation Xrotation
			JOINT LeftFoot
			{
				OFFSET 2.562200 -7.039590 0.000000 
				CHANNELS 3 Zrotation Yrotation Xrotation
				JOINT LeftToeBase
				{
					OFFSET 0.157640 -0.433110 2.322550 
					CHANNELS 3 Zrotation Yrotation Xrotation
					End Site
					{
						OFFSET 0.000000 0.000000 0.000000 
					}
				}
			}
		}
	}
	JOINT RightUpLeg
	{
		OFFSET -1.305520 -1.794630 0.839290 
		CHANNELS 3 Zrotation Yrotation Xrotation
		JOINT RightLeg
		{
			OFFSET -2.542530 -6.985550 0.000000 
			CHANNELS 3 Zrotation Yrotation Xrotation
			JOINT RightFoot
			{
				OFFSET -2.568260 -7.056230 0.000000 
				CHANNELS 3 Zrotation Yrotation Xrotation
				JOINT RightToeBase
				{
					OFFSET -0.164730 -0.452590 2.363150 
					CHANNELS 3 Zrotation Yrotation Xrotation
					End Site
					{
						OFFSET 0.000000 0.000000 0.000000 
					}
				}
			}
		}
	}
	JOINT Spine
	{
		OFFSET 0.028270 2.035590 -0.193380 
		CHANNELS 3 Zrotation Yrotation Xrotation
		JOINT Spine1
		{
			OFFSET 0.056720 2.048850 -0.042750 
			CHANNELS 3 Zrotation Yrotation Xrotation
			JOINT Neck1
			{
				OFFSET -0.054170 1.746240 0.172020 
				CHANNELS 3 Zrotation Yrotation Xrotation
				JOINT Head
				{
					OFFSET 0.104070 1.761360 -0.123970 
					CHANNELS 3 Zrotation Yrotation Xrotation
					End Site
					{
						OFFSET 0.000000 0.000000 0.000000 
					}
				}
			}
			JOINT LeftArm
			{
				OFFSET 3.362410 1.200890 -0.311210 
				CHANNELS 3 Zrotation Yrotation Xrotation
				JOINT LeftForeArm
				{
					OFFSET 4.983000 -0.000000 -0.000000 
					CHANNELS 3 Zrotation Yrotation Xrotation
					JOINT LeftHand
					{
						OFFSET 3.483560 -0.000000 -0.000000 
						CHANNELS 3 Zrotation Yrotation Xrotation
						JOINT LeftHandIndex1
						{
							OFFSET 0.715260 -0.000000 -0.000000 
							CHANNELS 3 Zrotation Yrotation Xrotation
							End Site
							{
								OFFSET 0.000000 0.000000 0.000000 
							}
						}
					}
				}
			}
			JOINT RightArm
			{
				OFFSET -3.136600 1.374050 -0.404650 
				CHANNELS 3 Zrotation Yrotation Xrotation
				JOINT RightForeArm
				{
					OFFSET -5.241900 -0.000000 -0.000000 
					CHANNELS 3 Zrotation Yrotation Xrotation
					JOINT RightHand
					{
						OFFSET -3.444170 -0.000000 -0.000000 
						CHANNELS 3 Zrotation Yrotation Xrotation
						JOINT RightHandIndex1
						{
							OFFSET -0.622530 -0.000000 -0.000000 
							CHANNELS 3 Zrotation Yrotation Xrotation
							End Site
							{
								OFFSET 0.000000 0.000000 0.000000 
							}
						}
					}
				}
			}
		}
	}
}
MOTION
Frames: 12
Frame Time: 0.041667
9.020147 17.474291 29.935211 -122.220427 -84.076022 132.766742 -11.274627 6.466685 -24.983345 0.042046 11.628632 29.621927 2.327604 -1.926928 6.073174 0.520900 -4.625600 -12.843800 23.575091 -8.485419 -24.595431 0.159312 -11.678726 28.860086 -5.456685 13.969495 4.266636 -0.181000 2.740100 -7.556100 0.809763 3.433035 -5.412324 1.455337 1.263008 -15.098885 9.050838 -19.789658 8.697478 20.065800 -11.435900 4.877500 -78.185466 19.096386 45.670941 18.783695 -25.680379 -5.409125 -0.287898 -0.555697 -34.380667 -7.125000 0.000000 0.000000 74.026815 -13.026183 38.126695 -10.539481 20.819987 -2.680501 -0.081788 0.764877 21.349941 7.125000 0.000000 0.000000 
9.020147 17.474069 29.937648 -121.885848 -84.047752 132.459606 -11.221198 6.351203 -24.952978 0.039110 11.627402 29.608043 2.286017 -1.812490 6.066716 0.520000 -4.621600 -12.832300 23.625375 -8.512954 -24.637433 0.158962 -11.681118 28.858119 -5.454634 13.956053 4.225336 -0.188500 2.796500 -7.712600 0.809518 3.445316 -5.409993 1.443865 1.264905 -15.086011 9.078629 -19.792160 8.685475 20.112900 -11.437800 4.888400 -78.190741 19.058538 45.696170 18.808254 -25.700478 -5.419761 -0.284525 -0.556523 -34.405812 -7.125000 0.000000 0.000000 74.080716 -13.006860 38.119354 -10.531179 20.806632 -2.676733 -0.084394 0.762156 21.391491 7.125000 0.000000 0.000000 
9.020811 17.476064 29.938534 -122.185227 -84.125817 132.758525 -11.315004 6.425326 -24.994891 0.028527 11.623058 29.591750 2.332633 -1.942411 6.116110 0.512000 -4.586400 -12.732600 23.502134 -8.430597 -24.605696 0.158816 -11.679282 28.869049 -5.449150 13.931286 4.310886 -0.171000 2.664200 -7.345200 0.801131 3.455119 -5.408775 1.460135 1.278586 -15.123565 9.073579 -19.815997 8.644960 20.084700 -11.430300 4.844100 -78.168044 19.032720 45.767696 18.832792 -25.723386 -5.430087 -0.284815 -0.559113 -34.437735 -7.125000 0.000000 0.000000 74.192964 -12.999961 37.860268 -10.504470 20.763134 -2.668647 -0.085902 0.758855 21.637362 7.125000 0.000000 0.000000 
9.021587 17.475510 29.943298 -121.979591 -84.135081 132.575820 -11.340632 6.454684 -25.029272 0.026254 11.620498 29.583250 2.334055 -1.946263 6.107398 0.528500 -4.658400 -12.936900 23.507838 -8.530473 -24.676812 0.152919 -11.680144 28.880185 -5.467680 14.009264 4.292334 -0.175300 2.696700 -7.435500 0.790005 3.482047 -5.407459 1.399336 1.278021 -15.133085 9.085187 -19.845942 8.618378 20.094800 -11.437400 4.835300 -78.160828 18.994666 45.791020 18.834779 -25.717796 -5.429536 -0.284166 -0.556906 -34.425794 -7.125000 0.000000 0.000000 74.230714 -12.978668 37.797056 -10.491785 20.747684 -2.665023 -0.088845 0.756823 21.683774 7.125000 0.000000 0.000000 
9.022252 17.475731 29.946067 -121.767229 -84.145974 132.381274 -11.354672 6.471981 -25.051354 0.021331 11.614688 29.567396 2.347599 -1.981551 6.129333 0.529800 -4.664200 -12.953300 23.501016 -8.551982 -24.707843 0.150091 -11.682976 28.890657 -5.470934 14.022121 4.294416 -0.174000 2.687000 -7.408500 0.783058 3.496916 -5.402200 1.366087 1.278963 -15.126198 9.093673 -19.869584 8.588428 20.098000 -11.437100 4.816400 -78.143505 18.950628 45.837653 18.851453 -25.730396 -5.436448 -0.284282 -0.557536 -34.445106 -7.125000 0.000000 0.000000 74.299344 -12.940698 37.663912 -10.469634 20.716095 -2.657913 -0.090859 0.752994 21.816365 7.125000 0.000000 0.000000 
9.022916 17.476064 29.948837 -121.508963 -84.152082 132.137825 -11.362980 6.489224 -25.078691 0.020943 11.614204 29.568612 2.363967 -2.025995 6.141437 0.528700 -4.659600 -12.940100 23.500721 -8.566261 -24.729551 0.151195 -11.681246 28.885728 -5.471221 14.022094 4.303545 -0.173200 2.681100 -7.392000 0.777307 3.508610 -5.395829 1.333557 1.278356 -15.112768 9.101937 -19.891089 8.560428 20.101400 -11.436100 4.798700 -78.127897 18.904686 45.878974 18.866506 -25.741646 -5.442678 -0.284698 -0.558157 -34.465735 -7.125000 0.000000 0.000000 74.360535 -12.895407 37.540183 -10.446357 20.683409 -2.650294 -0.092781 0.748867 21.947365 7.125000 0.000000 0.000000 
9.023581 17.476396 29.951496 -121.204685 -84.150423 131.852184 -11.360267 6.496319 -25.101795 0.021070 11.613543 29.569904 2.377823 -2.062853 6.153498 0.526200 -4.648600 -12.909100 23.510927 -8.576574 -24.749237 0.153671 -11.678656 28.875791 -5.468921 14.010896 4.309599 -0.173600 2.683900 -7.399800 0.773608 3.517012 -5.389516 1.305975 1.276724 -15.097504 9.112242 -19.907541 8.536881 20.111000 -11.435200 4.785200 -78.119883 18.860830 45.908499 18.878910 -25.750308 -5.447646 -0.285206 -0.558707 -34.485302 -7.125000 0.000000 0.000000 74.409222 -12.850702 37.449267 -10.426022 20.654737 -2.643357 -0.094528 0.745128 22.057083 7.125000 0.000000 0.000000 
9.024357 17.476839 29.953933 -120.914662 -84.148339 131.579383 -11.355272 6.498773 -25.123794 0.021428 11.613391 29.572633 2.391071 -2.098506 6.166230 0.521800 -4.629500 -12.854800 23.520650 -8.574237 -24.762954 0.157234 -11.675350 28.862320 -5.463054 13.982530 4.314011 -0.174900 2.693700 -7.427000 0.773404 3.519664 -5.384077 1.295936 1.275953 -15.086324 9.121953 -19.916413 8.518699 20.123400 -11.432700 4.774900 -78.134404 18.816366 45.904470 18.880217 -25.747240 -5.447344 -0.285536 -0.557934 -34.484803 -7.125000 0.000000 0.000000 74.431893 -12.816049 37.431066 -10.416342 20.639546 -2.639459 -0.095781 0.743198 22.111470 7.125000 0.000000 0.000000 
9.025021 17.477393 29.956592 -120.627146 -84.145521 131.313074 -11.350393 6.500219 -25.148267 0.021947 11.613577 29.576204 2.403042 -2.130586 6.177797 0.518000 -4.613100 -12.808200 23.530611 -8.568685 -24.778396 0.161220 -11.671608 28.847131 -5.456765 13.951862 4.319015 -0.176600 2.706600 -7.462900 0.774956 3.520484 -5.380388 1.293599 1.275411 -15.082310 9.131386 -19.920663 8.505226 20.138600 -11.430600 4.768400 -78.159501 18.778411 45.893574 18.877794 -25.740003 -5.445133 -0.285942 -0.556912 -34.482494 -7.125000 0.000000 0.000000 74.430326 -12.796716 37.493424 -10.419427 20.641079 -2.639148 -0.096049 0.743398 22.096279 7.125000 0.000000 0.000000 
9.025575 17.477947 29.959140 -120.403058 -84.144418 131.111321 -11.348063 6.498846 -25.173682 0.022019 11.613731 29.578613 2.412973 -2.157495 6.189651 0.514500 -4.597500 -12.763900 23.534253 -8.546606 -24.789975 0.165663 -11.667876 28.831476 -5.447342 13.906251 4.323907 -0.178800 2.723600 -7.510100 0.778714 3.519754 -5.378110 1.306248 1.277378 -15.084123 9.139616 -19.920487 8.496053 20.154500 -11.427900 4.764900 -78.201712 18.742530 45.865453 18.868105 -25.725006 -5.439158 -0.286240 -0.554937 -34.465425 -7.125000 0.000000 0.000000 74.404281 -12.790251 37.630336 -10.435454 20.658954 -2.642565 -0.095501 0.745681 22.014470 7.125000 0.000000 0.000000 
9.026129 17.478612 29.961577 -120.186209 -84.140927 130.919290 -11.344101 6.497776 -25.201216 0.022022 11.613558 29.579753 2.420565 -2.177843 6.201913 0.512200 -4.587300 -12.735100 23.539722 -8.518148 -24.803223 0.170193 -11.664884 28.816747 -5.437027 13.856898 4.328325 -0.181300 2.742700 -7.563200 0.784028 3.519717 -5.376107 1.327525 1.281528 -15.086410 9.145471 -19.919796 8.488680 20.167400 -11.425300 4.761500 -78.251294 18.706555 45.841122 18.855459 -25.707202 -5.431582 -0.286785 -0.552620 -34.443955 -7.125000 0.000000 0.000000 74.365128 -12.790109 37.810249 -10.460100 20.687349 -2.648373 -0.093972 0.749280 21.885775 7.125000 0.000000 0.000000 
9.026794 17.479276 29.964236 -119.969234 -84.139058 130.727376 -11.342467 6.496122 -25.228407 0.021710 11.613288 29.580216 2.427006 -2.195012 6.213861 0.511500 -4.584300 -12.726700 23.543325 -8.495918 -24.819468 0.174254 -11.661939 28.803657 -5.428159 13.814627 4.335394 -0.183200 2.756700 -7.602200 0.787719 3.520315 -5.373485 1.340704 1.284504 -15.085004 9.148619 -19.918072 8.483206 20.174600 -11.422100 4.756900 -78.287750 18.674407 45.841585 18.848381 -25.695753 -5.426641 -0.287851 -0.550999 -34.437216 -7.125000 0.000000 0.000000 74.332669 -12.789567 38.000460 -10.488548 20.720147 -2.655121 -0.092008 0.753239 21.738442 7.125000 0.000000 0.000000 
